<svg xmlns="http://www.w3.org/2000/svg" width="1920" height="1080"><path d="M475,1363L74,1356L1267,1471Z" fill="#84a299" stroke="#84a299" stroke-width="1.51"/><path d="M74,1356L-170,1364L1267,1471Z" fill="#6c9d90" stroke="#6c9d90" stroke-width="1.51"/><path d="M759,1362L475,1363L1267,1471Z" fill="#9ba6a2" stroke="#9ba6a2" stroke-width="1.51"/><path d="M204,-402L539,-368L1768,-404Z" fill="#a1c5eb" stroke="#a1c5eb" stroke-width="1.51"/><path d="M975,-320L1503,-333L1768,-404Z" fill="#8faacd" stroke="#8faacd" stroke-width="1.51"/><path d="M539,-368L975,-320L1768,-404Z" fill="#a6c0e6" stroke="#a6c0e6" stroke-width="1.51"/><path d="M1450,1465L1267,1471L2121,1455Z" fill="#757575" stroke="#757575" stroke-width="1.51"/><path d="M1713,1433L1450,1465L2121,1455Z" fill="#6d6d6d" stroke="#6d6d6d" stroke-width="1.51"/><path d="M1922,1405L1713,1433L2121,1455Z" fill="#666666" stroke="#666666" stroke-width="1.51"/><path d="M2045,13L2085,115L2182,-139Z" fill="#659b93" stroke="#659b93" stroke-width="1.51"/><path d="M2182,-139L2085,115L2216,206Z" fill="#629d8e" stroke="#629d8e" stroke-width="1.51"/><path d="M2238,1163L2121,1455L2294,1054Z" fill="#656565" stroke="#656565" stroke-width="1.51"/><path d="M1768,-404L2012,-249L2297,-373Z" fill="#6783a4" stroke="#6783a4" stroke-width="1.51"/><path d="M2012,-249L2182,-139L2297,-373Z" fill="#608298" stroke="#608298" stroke-width="1.51"/><path d="M2182,-139L2216,206L2297,-373Z" fill="#5e8b8f" stroke="#5e8b8f" stroke-width="1.51"/><path d="M2208,362L2052,629L2301,453Z" fill="#a0a7a5" stroke="#a0a7a5" stroke-width="1.51"/><path d="M2216,206L2208,362L2301,453Z" fill="#88a099" stroke="#88a099" stroke-width="1.51"/><path d="M2297,-373L2216,206L2301,453Z" fill="#609889" stroke="#609889" stroke-width="1.51"/><path d="M2052,629L1974,815L2303,838Z" fill="#979797" stroke="#979797" stroke-width="1.51"/><path d="M1974,815L2049,922L2303,838Z" fill="#8e8e8e" stroke="#8e8e8e" stroke-width="1.51"/><path d="M2049,922L2294,1054L2303,838Z" fill="#7f7f7f" stroke="#7f7f7f" stroke-width="1.51"/><path d="M2301,453L2052,629L2303,838Z" fill="#9c9c9c" stroke="#9c9c9c" stroke-width="1.51"/><path d="M2049,922L2238,1163L2294,1054Z" fill="#767676" stroke="#767676" stroke-width="1.51"/><path d="M2110,328L2052,629L2208,362Z" fill="#9eaaa7" stroke="#9eaaa7" stroke-width="1.51"/><path d="M2110,328L2208,362L2216,206Z" fill="#86a39a" stroke="#86a39a" stroke-width="1.51"/><path d="M1896,1265L2121,1455L2238,1163Z" fill="#676767" stroke="#676767" stroke-width="1.51"/><path d="M1990,1077L1896,1265L2238,1163Z" fill="#747474" stroke="#747474" stroke-width="1.51"/><path d="M2049,922L1990,1077L2238,1163Z" fill="#7b7b7b" stroke="#7b7b7b" stroke-width="1.51"/><path d="M2085,115L2110,328L2216,206Z" fill="#7ca398" stroke="#7ca398" stroke-width="1.51"/><path d="M1896,1265L1922,1405L2121,1455Z" fill="#676767" stroke="#676767" stroke-width="1.51"/><path d="M2012,-249L2045,13L2182,-139Z" fill="#679399" stroke="#679399" stroke-width="1.51"/><path d="M1833,511L2052,629L2110,328Z" fill="#adb3b1" stroke="#adb3b1" stroke-width="1.51"/><path d="M2085,115L1893,191L2110,328Z" fill="#82ab9e" stroke="#82ab9e" stroke-width="1.51"/><path d="M1893,191L1833,511L2110,328Z" fill="#9bb3ac" stroke="#9bb3ac" stroke-width="1.51"/><path d="M2045,13L1893,191L2085,115Z" fill="#72a999" stroke="#72a999" stroke-width="1.51"/><path d="M2012,-249L1697,-4L2045,13Z" fill="#71a1a2" stroke="#71a1a2" stroke-width="1.51"/><path d="M1896,1006L1990,1077L2049,922Z" fill="#878787" stroke="#878787" stroke-width="1.51"/><path d="M1755,646L1974,815L2052,629Z" fill="#a9a9a9" stroke="#a9a9a9" stroke-width="1.51"/><path d="M1833,511L1755,646L2052,629Z" fill="#b7b7b7" stroke="#b7b7b7" stroke-width="1.51"/><path d="M1974,815L1896,1006L2049,922Z" fill="#909090" stroke="#909090" stroke-width="1.51"/><path d="M1697,-4L1893,191L2045,13Z" fill="#74b09f" stroke="#74b09f" stroke-width="1.51"/><path d="M1697,373L1833,511L1893,191Z" fill="#a6bcb5" stroke="#a6bcb5" stroke-width="1.51"/><path d="M1768,-404L1697,-4L2012,-249Z" fill="#769aac" stroke="#769aac" stroke-width="1.51"/><path d="M1896,1006L1896,1265L1990,1077Z" fill="#808080" stroke="#808080" stroke-width="1.51"/><path d="M1640,917L1896,1006L1974,815Z" fill="#999999" stroke="#999999" stroke-width="1.51"/><path d="M1755,646L1640,917L1974,815Z" fill="#a8a8a8" stroke="#a8a8a8" stroke-width="1.51"/><path d="M1896,1006L1672,1275L1896,1265Z" fill="#818181" stroke="#818181" stroke-width="1.51"/><path d="M1896,1265L1713,1433L1922,1405Z" fill="#6f6f6f" stroke="#6f6f6f" stroke-width="1.51"/><path d="M1697,-4L1624,85L1893,191Z" fill="#80baaa" stroke="#80baaa" stroke-width="1.51"/><path d="M1640,917L1672,1275L1896,1006Z" fill="#909090" stroke="#909090" stroke-width="1.51"/><path d="M1672,1275L1713,1433L1896,1265Z" fill="#787878" stroke="#787878" stroke-width="1.51"/><path d="M1624,85L1697,373L1893,191Z" fill="#95bdb1" stroke="#95bdb1" stroke-width="1.51"/><path d="M1640,917L1547,1219L1672,1275Z" fill="#919191" stroke="#919191" stroke-width="1.51"/><path d="M1624,85L1601,342L1697,373Z" fill="#a3c5ba" stroke="#a3c5ba" stroke-width="1.51"/><path d="M1503,-333L1542,-34L1697,-4Z" fill="#87b3ba" stroke="#87b3ba" stroke-width="1.51"/><path d="M1558,706L1640,917L1755,646Z" fill="#b5b5b5" stroke="#b5b5b5" stroke-width="1.51"/><path d="M1503,-333L1697,-4L1768,-404Z" fill="#80a2b8" stroke="#80a2b8" stroke-width="1.51"/><path d="M1629,544L1755,646L1833,511Z" fill="#c3c3c3" stroke="#c3c3c3" stroke-width="1.51"/><path d="M1697,373L1629,544L1833,511Z" fill="#bdc5c3" stroke="#bdc5c3" stroke-width="1.51"/><path d="M1629,544L1558,706L1755,646Z" fill="#c2c2c2" stroke="#c2c2c2" stroke-width="1.51"/><path d="M1422,1119L1547,1219L1640,917Z" fill="#9c9c9c" stroke="#9c9c9c" stroke-width="1.51"/><path d="M1601,342L1629,544L1697,373Z" fill="#bac9c4" stroke="#bac9c4" stroke-width="1.51"/><path d="M1672,1275L1450,1465L1713,1433Z" fill="#7b7b7b" stroke="#7b7b7b" stroke-width="1.51"/><path d="M1547,1219L1450,1465L1672,1275Z" fill="#858585" stroke="#858585" stroke-width="1.51"/><path d="M1542,-34L1624,85L1697,-4Z" fill="#84bcb2" stroke="#84bcb2" stroke-width="1.51"/><path d="M1434,353L1601,342L1624,85Z" fill="#a8ccc1" stroke="#a8ccc1" stroke-width="1.51"/><path d="M1443,905L1422,1119L1640,917Z" fill="#a8a8a8" stroke="#a8a8a8" stroke-width="1.51"/><path d="M1558,706L1443,905L1640,917Z" fill="#b3b3b3" stroke="#b3b3b3" stroke-width="1.51"/><path d="M1474,33L1434,353L1624,85Z" fill="#9bccbd" stroke="#9bccbd" stroke-width="1.51"/><path d="M1601,342L1434,353L1629,544Z" fill="#bfcfca" stroke="#bfcfca" stroke-width="1.51"/><path d="M1542,-34L1474,33L1624,85Z" fill="#89c3b6" stroke="#89c3b6" stroke-width="1.51"/><path d="M1434,353L1311,445L1629,544Z" fill="#cbd7d4" stroke="#cbd7d4" stroke-width="1.51"/><path d="M1311,445L1402,692L1629,544Z" fill="#d8d8d8" stroke="#d8d8d8" stroke-width="1.51"/><path d="M1402,692L1558,706L1629,544Z" fill="#c9c9c9" stroke="#c9c9c9" stroke-width="1.51"/><path d="M1503,-333L1297,-204L1542,-34Z" fill="#8fb6c6" stroke="#8fb6c6" stroke-width="1.51"/><path d="M1297,-204L1299,-112L1542,-34Z" fill="#94c1c8" stroke="#94c1c8" stroke-width="1.51"/><path d="M1270,267L1434,353L1474,33Z" fill="#add6ca" stroke="#add6ca" stroke-width="1.51"/><path d="M975,-320L1177,-209L1503,-333Z" fill="#9ebeda" stroke="#9ebeda" stroke-width="1.51"/><path d="M1422,1119L1450,1465L1547,1219Z" fill="#909090" stroke="#909090" stroke-width="1.51"/><path d="M1402,692L1443,905L1558,706Z" fill="#c1c1c1" stroke="#c1c1c1" stroke-width="1.51"/><path d="M1177,-209L1297,-204L1503,-333Z" fill="#97b9d0" stroke="#97b9d0" stroke-width="1.51"/><path d="M1299,-112L1474,33L1542,-34Z" fill="#91c5c1" stroke="#91c5c1" stroke-width="1.51"/><path d="M1422,1119L1267,1471L1450,1465Z" fill="#8f8f8f" stroke="#8f8f8f" stroke-width="1.51"/><path d="M1245,81L1270,267L1474,33Z" fill="#a3d8c9" stroke="#a3d8c9" stroke-width="1.51"/><path d="M1299,-112L1245,81L1474,33Z" fill="#98cfc6" stroke="#98cfc6" stroke-width="1.51"/><path d="M1118,1075L1267,1471L1422,1119Z" fill="#a2a2a2" stroke="#a2a2a2" stroke-width="1.51"/><path d="M1402,692L1130,868L1443,905Z" fill="#c5c5c5" stroke="#c5c5c5" stroke-width="1.51"/><path d="M1118,1075L1422,1119L1443,905Z" fill="#afafaf" stroke="#afafaf" stroke-width="1.51"/><path d="M1130,868L1118,1075L1443,905Z" fill="#bfbfbf" stroke="#bfbfbf" stroke-width="1.51"/><path d="M1118,1075L1051,1135L1267,1471Z" fill="#aaaaaa" stroke="#aaaaaa" stroke-width="1.51"/><path d="M1270,267L1311,445L1434,353Z" fill="#c6ddd6" stroke="#c6ddd6" stroke-width="1.51"/><path d="M968,1336L759,1362L1267,1471Z" fill="#a5a5a5" stroke="#a5a5a5" stroke-width="1.51"/><path d="M1311,445L1195,460L1402,692Z" fill="#e4e5e5" stroke="#e4e5e5" stroke-width="1.51"/><path d="M1195,460L1073,667L1402,692Z" fill="#e3e3e3" stroke="#e3e3e3" stroke-width="1.51"/><path d="M1073,667L1130,868L1402,692Z" fill="#d7d7d7" stroke="#d7d7d7" stroke-width="1.51"/><path d="M1051,1135L968,1336L1267,1471Z" fill="#a6a6a6" stroke="#a6a6a6" stroke-width="1.51"/><path d="M1177,-209L1245,81L1299,-112Z" fill="#9fd0d1" stroke="#9fd0d1" stroke-width="1.51"/><path d="M1297,-204L1264,-179L1299,-112Z" fill="#9bc4d1" stroke="#9bc4d1" stroke-width="1.51"/><path d="M1270,267L1195,460L1311,445Z" fill="#d2e4de" stroke="#d2e4de" stroke-width="1.51"/><path d="M1177,-209L1264,-179L1297,-204Z" fill="#9dc4d5" stroke="#9dc4d5" stroke-width="1.51"/><path d="M1264,-179L1177,-209L1299,-112Z" fill="#9ec7d4" stroke="#9ec7d4" stroke-width="1.51"/><path d="M1177,-209L970,-157L1245,81Z" fill="#a6d6d9" stroke="#a6d6d9" stroke-width="1.51"/><path d="M1245,81L1009,223L1270,267Z" fill="#b8e6d8" stroke="#b8e6d8" stroke-width="1.51"/><path d="M1009,223L1195,460L1270,267Z" fill="#ceeae1" stroke="#ceeae1" stroke-width="1.51"/><path d="M1073,667L1036,800L1130,868Z" fill="#dcdcdc" stroke="#dcdcdc" stroke-width="1.51"/><path d="M970,-157L1009,223L1245,81Z" fill="#abe8d8" stroke="#abe8d8" stroke-width="1.51"/><path d="M970,-157L827,11L1009,223Z" fill="#b1eee1" stroke="#b1eee1" stroke-width="1.51"/><path d="M1009,223L918,365L1195,460Z" fill="#dcf4ec" stroke="#dcf4ec" stroke-width="1.51"/><path d="M972,617L1073,667L1195,460Z" fill="#f1f1f1" stroke="#f1f1f1" stroke-width="1.51"/><path d="M918,365L972,617L1195,460Z" fill="#f1f9f6" stroke="#f1f9f6" stroke-width="1.51"/><path d="M930,945L1118,1075L1130,868Z" fill="#cacaca" stroke="#cacaca" stroke-width="1.51"/><path d="M975,-320L970,-157L1177,-209Z" fill="#acd1e5" stroke="#acd1e5" stroke-width="1.51"/><path d="M1036,800L930,945L1130,868Z" fill="#d6d6d6" stroke="#d6d6d6" stroke-width="1.51"/><path d="M930,945L1051,1135L1118,1075Z" fill="#c3c3c3" stroke="#c3c3c3" stroke-width="1.51"/><path d="M972,617L1036,800L1073,667Z" fill="#e9e9e9" stroke="#e9e9e9" stroke-width="1.51"/><path d="M827,11L782,80L1009,223Z" fill="#aff2df" stroke="#aff2df" stroke-width="1.51"/><path d="M757,1173L968,1336L1051,1135Z" fill="#b5b8b7" stroke="#b5b8b7" stroke-width="1.51"/><path d="M930,945L757,1173L1051,1135Z" fill="#c0c4c3" stroke="#c0c4c3" stroke-width="1.51"/><path d="M823,957L757,1173L930,945Z" fill="#bec9c6" stroke="#bec9c6" stroke-width="1.51"/><path d="M972,617L701,755L1036,800Z" fill="#e5eae8" stroke="#e5eae8" stroke-width="1.51"/><path d="M701,755L930,945L1036,800Z" fill="#d8dedc" stroke="#d8dedc" stroke-width="1.51"/><path d="M701,755L823,957L930,945Z" fill="#cbd7d3" stroke="#cbd7d3" stroke-width="1.51"/><path d="M918,365L735,435L972,617Z" fill="#ecfcf6" stroke="#ecfcf6" stroke-width="1.51"/><path d="M782,80L918,365L1009,223Z" fill="#c7f5e8" stroke="#c7f5e8" stroke-width="1.51"/><path d="M757,1173L759,1362L968,1336Z" fill="#a5afac" stroke="#a5afac" stroke-width="1.51"/><path d="M682,-213L970,-157L975,-320Z" fill="#a8d4e7" stroke="#a8d4e7" stroke-width="1.51"/><path d="M539,-368L682,-213L975,-320Z" fill="#97cbe4" stroke="#97cbe4" stroke-width="1.51"/><path d="M782,80L643,254L918,365Z" fill="#baf4e3" stroke="#baf4e3" stroke-width="1.51"/><path d="M735,435L701,755L972,617Z" fill="#e7f5f1" stroke="#e7f5f1" stroke-width="1.51"/><path d="M682,-213L827,11L970,-157Z" fill="#a3dee1" stroke="#a3dee1" stroke-width="1.51"/><path d="M643,254L730,419L918,365Z" fill="#ccf7e9" stroke="#ccf7e9" stroke-width="1.51"/><path d="M730,419L735,435L918,365Z" fill="#d8f9ee" stroke="#d8f9ee" stroke-width="1.51"/><path d="M561,650L701,755L735,435Z" fill="#d7f2e9" stroke="#d7f2e9" stroke-width="1.51"/><path d="M479,939L536,1178L757,1173Z" fill="#9ebeb4" stroke="#9ebeb4" stroke-width="1.51"/><path d="M619,152L643,254L782,80Z" fill="#a2efda" stroke="#a2efda" stroke-width="1.51"/><path d="M479,939L757,1173L823,957Z" fill="#afc6bf" stroke="#afc6bf" stroke-width="1.51"/><path d="M507,-54L782,80L827,11Z" fill="#94e8d7" stroke="#94e8d7" stroke-width="1.51"/><path d="M682,-213L507,-54L827,11Z" fill="#90ded9" stroke="#90ded9" stroke-width="1.51"/><path d="M701,755L479,939L823,957Z" fill="#bbd4cc" stroke="#bbd4cc" stroke-width="1.51"/><path d="M757,1173L536,1178L759,1362Z" fill="#9bb2ab" stroke="#9bb2ab" stroke-width="1.51"/><path d="M507,-54L619,152L782,80Z" fill="#8aebd2" stroke="#8aebd2" stroke-width="1.51"/><path d="M536,1178L475,1363L759,1362Z" fill="#8baaa1" stroke="#8baaa1" stroke-width="1.51"/><path d="M730,419L450,485L735,435Z" fill="#cdf7ea" stroke="#cdf7ea" stroke-width="1.51"/><path d="M450,485L561,650L735,435Z" fill="#d4f8ed" stroke="#d4f8ed" stroke-width="1.51"/><path d="M643,254L450,485L730,419Z" fill="#c0f5e5" stroke="#c0f5e5" stroke-width="1.51"/><path d="M407,333L450,485L643,254Z" fill="#aef1de" stroke="#aef1de" stroke-width="1.51"/><path d="M561,650L479,939L701,755Z" fill="#bcded4" stroke="#bcded4" stroke-width="1.51"/><path d="M539,-368L507,-54L682,-213Z" fill="#83d0d9" stroke="#83d0d9" stroke-width="1.51"/><path d="M619,152L407,333L643,254Z" fill="#a2f0da" stroke="#a2f0da" stroke-width="1.51"/><path d="M296,802L479,939L561,650Z" fill="#abd9cc" stroke="#abd9cc" stroke-width="1.51"/><path d="M507,-54L245,77L619,152Z" fill="#71e6ca" stroke="#71e6ca" stroke-width="1.51"/><path d="M245,77L407,333L619,152Z" fill="#85ebd0" stroke="#85ebd0" stroke-width="1.51"/><path d="M296,802L429,948L479,939Z" fill="#9dcec0" stroke="#9dcec0" stroke-width="1.51"/><path d="M232,-305L260,-95L507,-54Z" fill="#60d1cd" stroke="#60d1cd" stroke-width="1.51"/><path d="M429,948L285,1149L536,1178Z" fill="#8bbbad" stroke="#8bbbad" stroke-width="1.51"/><path d="M410,1297L475,1363L536,1178Z" fill="#80aa9e" stroke="#80aa9e" stroke-width="1.51"/><path d="M479,939L429,948L536,1178Z" fill="#99c2b6" stroke="#99c2b6" stroke-width="1.51"/><path d="M232,-305L507,-54L539,-368Z" fill="#6fcbd4" stroke="#6fcbd4" stroke-width="1.51"/><path d="M450,485L320,550L561,650Z" fill="#c4f3e5" stroke="#c4f3e5" stroke-width="1.51"/><path d="M320,550L296,802L561,650Z" fill="#b3e6d7" stroke="#b3e6d7" stroke-width="1.51"/><path d="M204,-402L232,-305L539,-368Z" fill="#5ebed3" stroke="#5ebed3" stroke-width="1.51"/><path d="M285,1149L410,1297L536,1178Z" fill="#80afa2" stroke="#80afa2" stroke-width="1.51"/><path d="M410,1297L74,1356L475,1363Z" fill="#6aa292" stroke="#6aa292" stroke-width="1.51"/><path d="M260,-95L245,77L507,-54Z" fill="#5edcc8" stroke="#5edcc8" stroke-width="1.51"/><path d="M245,77L178,249L407,333Z" fill="#76e8cb" stroke="#76e8cb" stroke-width="1.51"/><path d="M407,333L320,550L450,485Z" fill="#b3f2e0" stroke="#b3f2e0" stroke-width="1.51"/><path d="M168,452L320,550L407,333Z" fill="#a6f0db" stroke="#a6f0db" stroke-width="1.51"/><path d="M296,802L113,936L429,948Z" fill="#8fccba" stroke="#8fccba" stroke-width="1.51"/><path d="M113,936L285,1149L429,948Z" fill="#82bfae" stroke="#82bfae" stroke-width="1.51"/><path d="M285,1149L104,1266L410,1297Z" fill="#6eaa9a" stroke="#6eaa9a" stroke-width="1.51"/><path d="M104,1266L74,1356L410,1297Z" fill="#689f95" stroke="#689f95" stroke-width="1.51"/><path d="M178,249L168,452L407,333Z" fill="#90ebd4" stroke="#90ebd4" stroke-width="1.51"/><path d="M-39,558L66,841L168,452Z" fill="#abdcdd" stroke="#abdcdd" stroke-width="1.51"/><path d="M197,-59L245,77L260,-95Z" fill="#54d8c7" stroke="#54d8c7" stroke-width="1.51"/><path d="M66,841L296,802L320,550Z" fill="#9fdacd" stroke="#9fdacd" stroke-width="1.51"/><path d="M168,452L66,841L320,550Z" fill="#ace4db" stroke="#ace4db" stroke-width="1.51"/><path d="M-39,558L-67,651L66,841Z" fill="#a4d0d9" stroke="#a4d0d9" stroke-width="1.51"/><path d="M232,-305L197,-59L260,-95Z" fill="#56cccc" stroke="#56cccc" stroke-width="1.51"/><path d="M113,936L6,1009L285,1149Z" fill="#81b5b0" stroke="#81b5b0" stroke-width="1.51"/><path d="M66,841L113,936L296,802Z" fill="#92c8c1" stroke="#92c8c1" stroke-width="1.51"/><path d="M6,1009L104,1266L285,1149Z" fill="#77aaa6" stroke="#77aaa6" stroke-width="1.51"/><path d="M-65,-291L197,-59L232,-305Z" fill="#57c0d0" stroke="#57c0d0" stroke-width="1.51"/><path d="M197,-59L101,33L245,77Z" fill="#54d8c7" stroke="#54d8c7" stroke-width="1.51"/><path d="M101,33L178,249L245,77Z" fill="#61dec8" stroke="#61dec8" stroke-width="1.51"/><path d="M-228,-395L-65,-291L204,-402Z" fill="#54aad8" stroke="#54aad8" stroke-width="1.51"/><path d="M204,-402L-65,-291L232,-305Z" fill="#57b6d4" stroke="#57b6d4" stroke-width="1.51"/><path d="M6,1009L-31,1210L104,1266Z" fill="#75a2a7" stroke="#75a2a7" stroke-width="1.51"/><path d="M101,33L-51,157L178,249Z" fill="#68d9cc" stroke="#68d9cc" stroke-width="1.51"/><path d="M-65,-291L6,13L197,-59Z" fill="#57c5cf" stroke="#57c5cf" stroke-width="1.51"/><path d="M-51,157L-187,360L168,452Z" fill="#8dd8da" stroke="#8dd8da" stroke-width="1.51"/><path d="M-51,157L168,452L178,249Z" fill="#85dfd5" stroke="#85dfd5" stroke-width="1.51"/><path d="M6,13L101,33L197,-59Z" fill="#55d1c9" stroke="#55d1c9" stroke-width="1.51"/><path d="M-187,360L-39,558L168,452Z" fill="#a4dde2" stroke="#a4dde2" stroke-width="1.51"/><path d="M6,13L-51,157L101,33Z" fill="#55d3c9" stroke="#55d3c9" stroke-width="1.51"/><path d="M66,841L6,1009L113,936Z" fill="#8ababc" stroke="#8ababc" stroke-width="1.51"/><path d="M-31,1210L74,1356L104,1266Z" fill="#6a999c" stroke="#6a999c" stroke-width="1.51"/><path d="M-31,1210L-170,1364L74,1356Z" fill="#67919b" stroke="#67919b" stroke-width="1.51"/><path d="M-67,651L-276,756L66,841Z" fill="#9cc4d3" stroke="#9cc4d3" stroke-width="1.51"/><path d="M-276,756L-270,906L66,841Z" fill="#93b7cc" stroke="#93b7cc" stroke-width="1.51"/><path d="M-270,906L6,1009L66,841Z" fill="#8bb4c0" stroke="#8bb4c0" stroke-width="1.51"/><path d="M-65,-291L-331,-55L6,13Z" fill="#57bad3" stroke="#57bad3" stroke-width="1.51"/><path d="M-331,-55L-277,46L6,13Z" fill="#57c0d0" stroke="#57c0d0" stroke-width="1.51"/><path d="M-277,46L-51,157L6,13Z" fill="#57cbcc" stroke="#57cbcc" stroke-width="1.51"/><path d="M-276,1156L-31,1210L6,1009Z" fill="#779ead" stroke="#779ead" stroke-width="1.51"/><path d="M-270,906L-276,1156L6,1009Z" fill="#80a2b8" stroke="#80a2b8" stroke-width="1.51"/><path d="M-187,360L-283,555L-39,558Z" fill="#aad4e9" stroke="#aad4e9" stroke-width="1.51"/><path d="M-276,1156L-170,1364L-31,1210Z" fill="#6c8fa3" stroke="#6c8fa3" stroke-width="1.51"/><path d="M-283,555L-67,651L-39,558Z" fill="#add2e5" stroke="#add2e5" stroke-width="1.51"/><path d="M-228,-395L-331,-55L-65,-291Z" fill="#55a9d9" stroke="#55a9d9" stroke-width="1.51"/><path d="M-346,262L-187,360L-51,157Z" fill="#80ccda" stroke="#80ccda" stroke-width="1.51"/><path d="M-277,46L-346,262L-51,157Z" fill="#6bc7d4" stroke="#6bc7d4" stroke-width="1.51"/><path d="M-283,555L-276,756L-67,651Z" fill="#a5c7e0" stroke="#a5c7e0" stroke-width="1.51"/><path d="M-276,1156L-298,1356L-170,1364Z" fill="#6786a1" stroke="#6786a1" stroke-width="1.51"/><path d="M-346,262L-283,555L-187,360Z" fill="#98cae5" stroke="#98cae5" stroke-width="1.51"/><path d="M-298,1356L-276,1156L-270,906Z" fill="#7491b0" stroke="#7491b0" stroke-width="1.51"/><path d="M-276,756L-298,1356L-270,906Z" fill="#809dbc" stroke="#809dbc" stroke-width="1.51"/><path d="M-331,-55L-346,262L-277,46Z" fill="#5bbfd2" stroke="#5bbfd2" stroke-width="1.51"/><path d="M-283,555L-346,262L-276,756Z" fill="#aeccee" stroke="#aeccee" stroke-width="1.51"/><path d="M-346,262L-298,1356L-276,756Z" fill="#96b2d4" stroke="#96b2d4" stroke-width="1.51"/></svg>